name C:\Users\u0101727\Documents\MyRepositories\upper-imu-dc\Results\main_tracking\Case_32\ABD01_angularVelocities_bodyFrame.mot
datacolumns 4
datarows 117
range 8.06000000 9.22000000
endheader 
time	radius_imu_x	radius_imu_y	radius_imu_z	
          8.06000000	          1.29902379	          0.96064556	          0.53885823	
          8.07000000	          1.29562372	          0.84926076	          0.50698908	
          8.08000000	          1.28973992	          0.74926469	          0.47155499	
          8.09000000	          1.28133364	          0.66467584	          0.43329757	
          8.10000000	          1.27078860	          0.59592741	          0.39332800	
          8.11000000	          1.25881762	          0.53938465	          0.35292405	
          8.12000000	          1.24642230	          0.48717642	          0.31336665	
          8.13000000	          1.23490937	          0.42753788	          0.27584787	
          8.14000000	          1.22586423	          0.34610439	          0.24140962	
          8.15000000	          1.22098198	          0.22833919	          0.21086153	
          8.16000000	          1.22175571	          0.06268287	          0.18467444	
          8.17000000	          1.22910622	         -0.15629553	          0.16288464	
          8.18000000	          1.24304193	         -0.42525904	          0.14504040	
          8.19000000	          1.26240929	         -0.73022008	          0.13020901	
          8.20000000	          1.28479127	         -1.04575593	          0.11706273	
          8.21000000	          1.30662951	         -1.33602988	          0.10406315	
          8.22000000	          1.32364806	         -1.55854360	          0.08974690	
          8.23000000	          1.33161145	         -1.67120416	          0.07307815	
          8.24000000	          1.32733296	         -1.64215649	          0.05379029	
          8.25000000	          1.30965782	         -1.45985761	          0.03260053	
          8.26000000	          1.27998459	         -1.13899404	          0.01116873	
          8.27000000	          1.24201713	         -0.71872096	         -0.00823932	
          8.28000000	          1.20089575	         -0.25410588	         -0.02324206	
          8.29000000	          1.16219014	          0.19464711	         -0.03176267	
          8.30000000	          1.13110840	          0.57123699	         -0.03228215	
          8.31000000	          1.11195698	          0.82949759	         -0.02398514	
          8.32000000	          1.10775918	          0.93751680	         -0.00687837	
          8.33000000	          1.12000411	          0.88040229	          0.01812530	
          8.34000000	          1.14854626	          0.66186903	          0.04922149	
          8.35000000	          1.19162965	          0.30452526	          0.08385173	
          8.36000000	          1.24596559	         -0.15122801	          0.11891869	
          8.37000000	          1.30685133	         -0.64995675	          0.15103919	
          8.38000000	          1.36844409	         -1.12639176	          0.17686293	
          8.39000000	          1.42437288	         -1.51394954	          0.19351794	
          8.40000000	          1.46877830	         -1.75644618	          0.19917907	
          8.41000000	          1.49759715	         -1.82054867	          0.19360807	
          8.42000000	          1.50958173	         -1.70396493	          0.17838580	
          8.43000000	          1.50650916	         -1.43484203	          0.15662004	
          8.44000000	          1.49247051	         -1.06263099	          0.13219574	
          8.45000000	          1.47263167	         -0.64516827	          0.10888214	
          8.46000000	          1.45197245	         -0.23666199	          0.08961093	
          8.47000000	          1.43434184	          0.12109849	          0.07608739	
          8.48000000	          1.42199719	          0.40332675	          0.06875375	
          8.49000000	          1.41563969	          0.60237539	          0.06702302	
          8.50000000	          1.41479528	          0.72433696	          0.06964402	
          8.51000000	          1.41831084	          0.78388187	          0.07506102	
          8.52000000	          1.42478486	          0.79900948	          0.08168864	
          8.53000000	          1.43286367	          0.78669888	          0.08809264	
          8.54000000	          1.44142277	          0.75982711	          0.09310630	
          8.55000000	          1.44966838	          0.72554459	          0.09590639	
          8.56000000	          1.45716053	          0.68536220	          0.09604479	
          8.57000000	          1.46374391	          0.63696806	          0.09342284	
          8.58000000	          1.46940439	          0.57713919	          0.08821422	
          8.59000000	          1.47410910	          0.50457379	          0.08076306	
          8.60000000	          1.47769393	          0.42155318	          0.07148584	
          8.61000000	          1.47982831	          0.33407448	          0.06079330	
          8.62000000	          1.48003977	          0.25100598	          0.04904133	
          8.63000000	          1.47776456	          0.18312923	          0.03652336	
          8.64000000	          1.47242510	          0.14228549	          0.02351854	
          8.65000000	          1.46357568	          0.13993528	          0.01039127	
          8.66000000	          1.45112853	          0.18438621	         -0.00229479	
          8.67000000	          1.43557431	          0.27715925	         -0.01371959	
          8.68000000	          1.41803290	          0.41053748	         -0.02288375	
          8.69000000	          1.40002683	          0.56832778	         -0.02882876	
          8.70000000	          1.38306786	          0.72977957	         -0.03090263	
          8.71000000	          1.36828076	          0.87467438	         -0.02893678	
          8.72000000	          1.35622428	          0.98750960	         -0.02326312	
          8.73000000	          1.34691852	          1.05974698	         -0.01459265	
          8.74000000	          1.33998650	          1.09014409	         -0.00383481	
          8.75000000	          1.33480607	          1.08369341	          0.00806585	
          8.76000000	          1.33062383	          1.04959723	          0.02024057	
          8.77000000	          1.32664598	          0.99850909	          0.03195461	
          8.78000000	          1.32213757	          0.93947409	          0.04262466	
          8.79000000	          1.31653108	          0.87747411	          0.05181237	
          8.80000000	          1.30950999	          0.81264870	          0.05921881	
          8.81000000	          1.30103294	          0.74168667	          0.06469915	
          8.82000000	          1.29129815	          0.66077498	          0.06829190	
          8.83000000	          1.28067973	          0.56861625	          0.07023178	
          8.84000000	          1.26967019	          0.46802852	          0.07091432	
          8.85000000	          1.25883539	          0.36551799	          0.07080925	
          8.86000000	          1.24875593	          0.26934344	          0.07035071	
          8.87000000	          1.23993256	          0.18719420	          0.06984193	
          8.88000000	          1.23267574	          0.12438570	          0.06939495	
          8.89000000	          1.22703463	          0.08287617	          0.06890437	
          8.90000000	          1.22280592	          0.06104694	          0.06805353	
          8.91000000	          1.21961669	          0.05418580	          0.06636175	
          8.92000000	          1.21704149	          0.05565788	          0.06327747	
          8.93000000	          1.21470604	          0.05862093	          0.05830001	
          8.94000000	          1.21234212	          0.05787134	          0.05109450	
          8.95000000	          1.20978337	          0.05120288	          0.04156501	
          8.96000000	          1.20691849	          0.03974492	          0.02986851	
          8.97000000	          1.20363468	          0.02713798	          0.01637189	
          8.98000000	          1.19978168	          0.01790285	          0.00157031	
          8.99000000	          1.19516648	          0.01572304	         -0.01400316	
          9.00000000	          1.18956710	          0.02236627	         -0.02984139	
          9.01000000	          1.18275663	          0.03755349	         -0.04548035	
          9.02000000	          1.17454015	          0.05955316	         -0.06048022	
          9.03000000	          1.16479954	          0.08604319	         -0.07440379	
          9.04000000	          1.15352112	          0.11490351	         -0.08682225	
          9.05000000	          1.14077686	          0.14484950	         -0.09735647	
          9.06000000	          1.12664993	          0.17597019	         -0.10573919	
          9.07000000	          1.11112486	          0.21019142	         -0.11187034	
          9.08000000	          1.09398847	          0.25148351	         -0.11583762	
          9.09000000	          1.07479760	          0.30548567	         -0.11788751	
          9.10000000	          1.05294798	          0.37838313	         -0.11835258	
          9.11000000	          1.02783055	          0.47528594	         -0.11755258	
          9.12000000	          0.99902297	          0.59862021	         -0.11569019	
          9.13000000	          0.96646172	          0.74691524	         -0.11276476	
          9.14000000	          0.93056017	          0.91407611	         -0.10853136	
          9.15000000	          0.89225582	          1.08911590	         -0.10252894	
          9.16000000	          0.85297683	          1.25646096	         -0.09418441	
          9.17000000	          0.81451749	          1.39713471	         -0.08297158	
          9.18000000	          0.77881144	          1.49115366	         -0.06858234	
          9.19000000	          0.74759868	          1.52129386	         -0.05107130	
          9.20000000	          0.72200676	          1.47795029	         -0.03094972	
          9.21000000	          0.70214153	          1.36381200	         -0.00919896	
          9.22000000	          0.68689009	          1.19589197	          0.01283782	
